<?xml version="1.0" encoding="iso-8859-1"?>
<!-- Uploaded to: SVG Repo, www.svgrepo.com, Generator: SVG Repo Mixer Tools -->
<svg fill="#000000" height="800px" width="800px" version="1.1" id="Layer_1" xmlns="http://www.w3.org/2000/svg" xmlns:xlink="http://www.w3.org/1999/xlink" 
	 viewBox="0 0 512 512" xml:space="preserve">
<g>
	<g>
		<g>
			<path d="M370.164,257.081H252.131c-6.147,0-11.13,4.984-11.13,11.13c0,6.146,4.983,11.13,11.13,11.13h118.032
				c6.147,0,11.13-4.984,11.13-11.13C381.293,262.066,376.311,257.081,370.164,257.081z"/>
			<path d="M249.002,180.744l5.802-6.448v49.339c0,6.146,4.983,11.13,11.13,11.13c6.147,0,11.13-4.984,11.13-11.13v-49.339
				l5.802,6.448c2.198,2.442,5.231,3.685,8.278,3.685c2.652,0,5.315-0.943,7.442-2.857c4.569-4.112,4.94-11.149,0.828-15.718
				l-25.206-28.008c-2.11-2.345-5.118-3.685-8.273-3.685c-3.156,0-6.163,1.339-8.273,3.685l-25.206,28.008
				c-4.112,4.569-3.742,11.607,0.828,15.718C237.853,185.685,244.891,185.313,249.002,180.744z"/>
			<path d="M364.633,137.845c-2.11-2.345-5.118-3.685-8.273-3.685c-3.156,0-6.163,1.339-8.273,3.685l-25.206,28.008
				c-4.112,4.569-3.742,11.607,0.828,15.718c4.569,4.114,11.607,3.742,15.719-0.827l5.802-6.448v49.339
				c0,6.146,4.983,11.13,11.13,11.13c6.147,0,11.13-4.984,11.13-11.13v-49.339l5.802,6.448c2.198,2.442,5.231,3.685,8.278,3.685
				c2.652,0,5.315-0.943,7.442-2.857c4.569-4.112,4.94-11.149,0.828-15.718L364.633,137.845z"/>
			<path d="M500.87,372.34v-0.001c6.147,0,11.13-4.984,11.13-11.13v-44.522c0-6.146-4.983-11.13-11.13-11.13h-63.458V39.486
				c0-6.146-4.983-11.13-11.13-11.13H85.719c-6.147,0-11.13,4.984-11.13,11.13v266.072H11.13c-6.147,0-11.13,4.984-11.13,11.13
				v44.522c0,6.146,4.983,11.13,11.13,11.13h38.957v44.522H11.13c-6.147,0-11.13,4.984-11.13,11.13v44.522
				c0,6.146,4.983,11.13,11.13,11.13H500.87c6.147,0,11.13-4.984,11.13-11.13v-44.522c0-6.146-4.983-11.13-11.13-11.13h-38.957
				V372.34H500.87z M222.609,50.616h66.783v24.521l-5.402-3.24c-3.525-2.117-7.929-2.114-11.454-0.001l-16.533,9.921l-16.537-9.921
				c-1.762-1.057-3.744-1.586-5.727-1.586s-3.965,0.529-5.727,1.586l-5.404,3.243V50.616z M96.849,101.127h28.925
				c6.147,0,11.13-4.984,11.13-11.13s-4.983-11.13-11.13-11.13H96.849v-28.25h103.499v44.181c0,4.01,2.157,7.71,5.646,9.686
				s7.772,1.922,11.211-0.141l16.536-9.921l16.536,9.921c1.762,1.057,3.744,1.586,5.727,1.586c1.982,0,3.965-0.53,5.727-1.586
				l16.533-9.921l16.532,9.919c3.439,2.065,7.722,2.118,11.211,0.143c3.489-1.976,5.646-5.677,5.646-9.686V50.616h103.499v254.941
				H96.849V101.127z M489.739,439.122v22.261H22.261v-22.261H489.739z M72.348,416.861v-44.522h33.391v44.522H72.348z M128,416.861
				v-44.522h89.043v44.522H128z M239.304,416.861v-44.522h33.391v44.522H239.304z M294.957,416.861v-44.522H384v44.522H294.957z
				 M406.261,416.861v-44.522h33.391v44.522H406.261z M22.261,350.078v-22.261h467.478v22.261H22.261z"/>
			<path d="M166.036,78.866h-1.113c-6.147,0-11.13,4.984-11.13,11.13s4.983,11.13,11.13,11.13h1.113
				c6.147,0,11.13-4.984,11.13-11.13S172.183,78.866,166.036,78.866z"/>
		</g>
	</g>
</g>
</svg>